M48
; DRILL file {KiCad (5.1.0)-1} date 21/07/2019 21:05:05
; FORMAT={-:-/ absolute / inch / decimal}
; #@! TF.CreationDate,2019-07-21T21:05:05+01:00
; #@! TF.GenerationSoftware,Kicad,Pcbnew,(5.1.0)-1
; #@! TF.FileFunction,Plated,1,2,PTH
FMAT,2
INCH
T1C0.0315
T2C0.0354
T3C0.0394
T4C0.0598
%
G90
G05
T1
X3.225Y-2.905
X3.725Y-2.905
T2
X3.07Y-2.84
X3.07Y-2.94
T3
X4.42Y-2.42
X4.42Y-2.52
X4.42Y-2.62
X3.82Y-2.42
X3.82Y-2.52
X3.82Y-2.62
X4.7225Y-2.5029
X4.7225Y-2.6525
X4.22Y-2.42
X4.22Y-2.52
X4.22Y-2.62
X3.62Y-2.42
X3.62Y-2.52
X3.62Y-2.62
X3.865Y-2.87
X3.965Y-2.87
X4.065Y-2.87
X4.165Y-2.87
X4.265Y-2.87
X4.365Y-2.87
X4.465Y-2.87
X4.02Y-2.42
X4.02Y-2.52
X4.02Y-2.62
T4
X3.1375Y-2.48
X3.1375Y-2.68
T0
M30
