G04 #@! TF.GenerationSoftware,KiCad,Pcbnew,(5.1.0)-1*
G04 #@! TF.CreationDate,2019-07-21T18:23:44+01:00*
G04 #@! TF.ProjectId,ServoBreakout,53657276-6f42-4726-9561-6b6f75742e6b,rev?*
G04 #@! TF.SameCoordinates,Original*
G04 #@! TF.FileFunction,Copper,L2,Bot*
G04 #@! TF.FilePolarity,Positive*
%FSLAX46Y46*%
G04 Gerber Fmt 4.6, Leading zero omitted, Abs format (unit mm)*
G04 Created by KiCad (PCBNEW (5.1.0)-1) date 2019-07-21 18:23:44*
%MOMM*%
%LPD*%
G04 APERTURE LIST*
%ADD10C,2.000000*%
%ADD11R,2.000000X2.000000*%
%ADD12C,1.800000*%
%ADD13R,1.800000X1.800000*%
%ADD14C,3.000000*%
%ADD15R,3.000000X3.000000*%
%ADD16O,1.600000X1.600000*%
%ADD17C,1.600000*%
%ADD18O,1.700000X1.700000*%
%ADD19R,1.700000X1.700000*%
%ADD20C,0.500000*%
%ADD21C,1.000000*%
G04 APERTURE END LIST*
D10*
X119951500Y-63573500D03*
D11*
X119951500Y-67373500D03*
D12*
X77978000Y-74676000D03*
D13*
X77978000Y-72136000D03*
D14*
X79692500Y-68072000D03*
D15*
X79692500Y-62992000D03*
D16*
X94615000Y-73787000D03*
D17*
X81915000Y-73787000D03*
D18*
X113411000Y-72898000D03*
X110871000Y-72898000D03*
X108331000Y-72898000D03*
X105791000Y-72898000D03*
X103251000Y-72898000D03*
X100711000Y-72898000D03*
D19*
X98171000Y-72898000D03*
D18*
X112268000Y-66548000D03*
X112268000Y-64008000D03*
D19*
X112268000Y-61468000D03*
D18*
X107188000Y-66548000D03*
X107188000Y-64008000D03*
D19*
X107188000Y-61468000D03*
D18*
X102108000Y-66548000D03*
X102108000Y-64008000D03*
D19*
X102108000Y-61468000D03*
D18*
X97028000Y-66548000D03*
X97028000Y-64008000D03*
D19*
X97028000Y-61468000D03*
D18*
X91948000Y-66548000D03*
X91948000Y-64008000D03*
D19*
X91948000Y-61468000D03*
D20*
X103251000Y-71695919D02*
X103251000Y-72898000D01*
X100833581Y-69278500D02*
X103251000Y-71695919D01*
X91948000Y-66548000D02*
X94678500Y-69278500D01*
X94678500Y-69278500D02*
X100833581Y-69278500D01*
D21*
X79756000Y-67547500D02*
X83138000Y-67547500D01*
X86677500Y-64008000D02*
X91948000Y-64008000D01*
X83138000Y-67547500D02*
X86677500Y-64008000D01*
X91948000Y-64008000D02*
X97028000Y-64008000D01*
X98230081Y-64008000D02*
X102108000Y-64008000D01*
X97028000Y-64008000D02*
X98230081Y-64008000D01*
X102108000Y-64008000D02*
X107188000Y-64008000D01*
X108390081Y-64008000D02*
X112268000Y-64008000D01*
X107188000Y-64008000D02*
X108390081Y-64008000D01*
X86202500Y-70612000D02*
X83138000Y-67547500D01*
X100711000Y-72898000D02*
X100711000Y-71695919D01*
X100711000Y-71695919D02*
X99627081Y-70612000D01*
X93408500Y-70612000D02*
X86202500Y-70612000D01*
X94615000Y-72655630D02*
X94615000Y-70612000D01*
X94615000Y-73787000D02*
X94615000Y-72655630D01*
X99627081Y-70612000D02*
X94615000Y-70612000D01*
X94615000Y-70612000D02*
X93408500Y-70612000D01*
X116586000Y-64008000D02*
X119951500Y-67373500D01*
X112268000Y-64008000D02*
X116586000Y-64008000D01*
X112268000Y-61468000D02*
X107188000Y-61468000D01*
X107188000Y-61468000D02*
X102108000Y-61468000D01*
X102108000Y-61468000D02*
X97028000Y-61468000D01*
X97028000Y-61468000D02*
X91948000Y-61468000D01*
X80835500Y-61468000D02*
X79756000Y-62547500D01*
X91948000Y-61468000D02*
X80835500Y-61468000D01*
X76644500Y-71183500D02*
X77279500Y-71818500D01*
X76644500Y-62801500D02*
X76644500Y-71183500D01*
X79756000Y-62547500D02*
X76898500Y-62547500D01*
X76898500Y-62547500D02*
X76644500Y-62801500D01*
X117846000Y-61468000D02*
X119951500Y-63573500D01*
X117538500Y-61468000D02*
X117846000Y-61468000D01*
X117538500Y-61468000D02*
X112268000Y-61468000D01*
X118237000Y-61468000D02*
X117538500Y-61468000D01*
X98171000Y-73787000D02*
X98171000Y-72898000D01*
X99187000Y-74803000D02*
X98171000Y-73787000D01*
X117179000Y-74803000D02*
X99187000Y-74803000D01*
X122682000Y-69300000D02*
X117179000Y-74803000D01*
X119951500Y-63573500D02*
X122682000Y-66304000D01*
X122682000Y-66304000D02*
X122682000Y-69300000D01*
D20*
X105791000Y-72517000D02*
X105791000Y-72898000D01*
X101536500Y-68262500D02*
X105791000Y-72517000D01*
X97028000Y-66548000D02*
X98742500Y-68262500D01*
X98742500Y-68262500D02*
X101536500Y-68262500D01*
X108331000Y-72771000D02*
X108331000Y-72898000D01*
X102108000Y-66548000D02*
X108331000Y-72771000D01*
X107188000Y-69215000D02*
X110871000Y-72898000D01*
X107188000Y-66548000D02*
X107188000Y-69215000D01*
X113411000Y-69469000D02*
X113411000Y-72898000D01*
X112268000Y-66548000D02*
X112268000Y-68326000D01*
X112268000Y-68326000D02*
X113411000Y-69469000D01*
X81089500Y-74612500D02*
X81915000Y-73787000D01*
X77978000Y-74295000D02*
X78295500Y-74612500D01*
X78295500Y-74612500D02*
X81089500Y-74612500D01*
M02*
